<svg width="24" height="24" viewBox="0 0 24 24" fill="none" xmlns="http://www.w3.org/2000/svg">
<path fill-rule="evenodd" clip-rule="evenodd" d="M21 3H19.5V5.25C19.5 5.67 19.17 6 18.75 6H15.75C15.33 6 15 5.67 15 5.25V3H10.5V5.25C10.5 5.67 10.17 6 9.75 6H6.75C6.33 6 6 5.67 6 5.25V3H4.5C3.675 3 3 3.675 3 4.5V21C3 21.825 3.675 22.5 4.5 22.5H21C21.825 22.5 22.5 21.825 22.5 21V4.5C22.5 3.675 21.825 3 21 3ZM21 21H4.5V7.5H21V21ZM9 4.5H7.5V1.5H9V4.5ZM18 4.5H16.5V1.5H18V4.5ZM10.5 10.5H9V9H10.5V10.5ZM13.5 10.5H12V9H13.5V10.5ZM16.5 10.5H15V9H16.5V10.5ZM19.5 10.5H18V9H19.5V10.5ZM7.5 13.5H6V12H7.5V13.5ZM10.5 13.5H9V12H10.5V13.5ZM13.5 13.5H12V12H13.5V13.5ZM16.5 13.5H15V12H16.5V13.5ZM19.5 13.5H18V12H19.5V13.5ZM7.5 16.5H6V15H7.5V16.5ZM10.5 16.5H9V15H10.5V16.5ZM13.5 16.5H12V15H13.5V16.5ZM16.5 16.5H15V15H16.5V16.5ZM19.5 16.5H18V15H19.5V16.5ZM7.5 19.5H6V18H7.5V19.5ZM10.5 19.5H9V18H10.5V19.5ZM13.5 19.5H12V18H13.5V19.5ZM16.5 19.5H15V18H16.5V19.5Z" fill="black"/>
</svg>
