<svg width="19" height="19" viewBox="0 0 19 19" fill="none" xmlns="http://www.w3.org/2000/svg">
<path fill-rule="evenodd" clip-rule="evenodd" d="M12.0865 1.625H3.64899C3.35062 1.625 3.06447 1.74353 2.85349 1.9545C2.64251 2.16548 2.52399 2.45163 2.52399 2.75V16.25C2.52399 16.5484 2.64251 16.8345 2.85349 17.0455C3.06447 17.2565 3.35062 17.375 3.64899 17.375H14.899C15.1974 17.375 15.4835 17.2565 15.6945 17.0455C15.9055 16.8345 16.024 16.5484 16.024 16.25V5.5625L12.0865 1.625ZM3.64899 2.75H8.14899C8.01422 2.79143 7.89353 2.8693 7.80024 2.975C7.67195 3.12738 7.58309 3.30895 7.54149 3.50375C7.41106 4.0448 7.37679 4.60458 7.44024 5.1575C7.50774 5.84262 7.63486 6.51988 7.82274 7.1825C7.47302 8.20648 7.05586 9.20617 6.57399 10.175C6.01149 11.3 5.67399 12.0425 5.55024 12.245C5.28575 12.3438 5.02664 12.4565 4.77399 12.5825C4.36674 12.7681 3.98761 13.01 3.64899 13.3025V2.75ZM8.62149 8.15C8.88716 9.01881 9.33599 9.82058 9.93774 10.5013C10.2471 10.7679 10.6071 10.9704 10.9952 11.0975C10.2752 11.1988 9.61149 11.3225 8.95899 11.4688C8.26374 11.6375 7.58311 11.8591 6.92274 12.1325C6.26236 12.4059 7.17024 11.6375 7.60899 10.7263C8.01961 9.89375 8.36274 9.0275 8.63274 8.13875L8.62149 8.15V8.15ZM14.899 16.25H4.21149C4.14795 16.2573 4.08378 16.2573 4.02024 16.25C4.32468 16.1423 4.60407 15.9739 4.84149 15.755C5.63687 14.9657 6.31161 14.0635 6.84399 13.0775C7.19274 12.9313 7.49649 12.8187 7.75524 12.7287L8.22774 12.5712C8.73399 12.425 9.28524 12.3125 9.84774 12.2C10.4102 12.0875 10.9727 12.02 11.5127 11.975C12.0156 12.218 12.5387 12.4182 13.0765 12.5712C13.5299 12.695 13.9922 12.7828 14.4602 12.83H14.8877V16.25H14.899ZM14.899 10.7825C14.6693 10.6553 14.4283 10.5498 14.179 10.4675C13.902 10.401 13.6196 10.3596 13.3352 10.3438C12.8729 10.3471 12.4105 10.3775 11.9515 10.4337C11.5323 10.2711 11.1498 10.0263 10.8265 9.71375C10.1547 8.95821 9.65898 8.06291 9.37524 7.0925C9.50011 6.34888 9.57549 5.59625 9.60024 4.8425C9.62274 4.56125 9.62274 4.28 9.60024 3.99875C9.63869 3.82739 9.63844 3.6496 9.59952 3.47834C9.5606 3.30709 9.48398 3.14666 9.37524 3.00875C9.28462 2.92099 9.17697 2.85275 9.05893 2.80825C8.9409 2.76374 8.81499 2.74392 8.68899 2.75H11.524L14.899 6.125V10.7825Z" fill="white"/>
</svg>
